<svg width="106" height="106" viewBox="0 0 106 106" fill="none" xmlns="http://www.w3.org/2000/svg">
<rect width="106" height="106" rx="30" fill="url(#paint0_linear_12_264)"/>
<path d="M53.5 91C74.2107 91 91 74.2107 91 53.5C91 32.7893 74.2107 16 53.5 16C32.7893 16 16 32.7893 16 53.5C16 74.2107 32.7893 91 53.5 91Z" fill="#FFDD67"/>
<path d="M37.25 39.5C37.25 36.5 43.875 37.875 46 40C47.25 37.875 46.625 36 46.625 36C46.625 36 44.75 34.625 41.875 34.125V31.375C39.625 30.625 37.125 31.375 37.125 31.375V34C37.125 34 32.625 34.875 32.625 39.5C32.625 45.625 41.875 44.375 41.875 48.25C41.875 51.125 35.625 49.875 32.625 47.625C31.625 49.875 32.625 51.875 32.625 51.875C34.875 52.875 37.125 53.125 37.125 53.125V55.625C37.125 55.625 39.625 56.375 41.875 55.625V53C41.875 53 47.125 52.75 47.125 48.25C47.25 42.375 37.25 42.875 37.25 39.5ZM64.75 39.5C64.75 36.5 71.375 37.875 73.5 40C74.75 37.875 74.125 36 74.125 36C74.125 36 72.25 34.625 69.375 34.125V31.375C67.125 30.625 64.625 31.375 64.625 31.375V34C64.625 34 60.125 34.875 60.125 39.5C60.125 45.625 69.375 44.375 69.375 48.25C69.375 51.125 63.125 49.875 60.125 47.625C59.125 49.875 60.125 51.875 60.125 51.875C62.375 52.875 64.625 53.125 64.625 53.125V55.625C64.625 55.625 67.125 56.375 69.375 55.625V53C69.375 53 74.625 52.75 74.625 48.25C74.75 42.375 64.75 42.875 64.75 39.5ZM73.375 61H33.625C32.75 61 32.25 61.625 32.25 62.25C32.25 71.375 39.75 81 53.5 81C67.25 81 74.75 71.375 74.75 62.25C74.75 61.625 74.25 61 73.375 61Z" fill="#664E27"/>
<path d="M65 68.5H53.5H42C41.125 68.5 41 68.875 41 69.5V74.5C41 85.5 46.625 91 53.5 91C60.375 91 66 85.5 66 74.5V69.5C66 68.875 65.875 68.5 65 68.5Z" fill="#74E063"/>
<path d="M51.8749 75.375C51.8749 73.375 55.9999 74.375 57.3749 75.75C58.2499 74.375 57.7499 73.125 57.7499 73.125C57.7499 73.125 56.4999 72.25 54.7499 71.875V70C53.3749 69.5 51.7499 70 51.7499 70V71.75C51.7499 71.75 48.8749 72.25 48.8749 75.375C48.8749 79.375 54.7499 78.5 54.7499 81.125C54.7499 83 50.8749 82.25 48.8749 80.75C48.2499 82.25 48.8749 83.5 48.8749 83.5C50.2499 84.125 51.7499 84.375 51.7499 84.375V86C51.7499 86 53.2499 86.5 54.7499 86V84.25C54.7499 84.25 57.9999 84 57.9999 81.125C58.2499 77.25 51.8749 77.625 51.8749 75.375Z" fill="#449636"/>
<path d="M62.9999 68.5V72.875C62.9999 83.25 59.2499 87.875 53.4999 87.875C47.7499 87.875 43.9999 83.375 43.9999 72.875V68.5H42.9999V72.875C42.9999 84 47.1249 89 53.4999 89C59.8749 89 63.9999 84 63.9999 72.875V68.5H62.9999Z" fill="#449636"/>
<defs>
<linearGradient id="paint0_linear_12_264" x1="53" y1="0" x2="53" y2="106" gradientUnits="userSpaceOnUse">
<stop stop-color="#6D63E0"/>
<stop offset="1" stop-color="#3B367A"/>
</linearGradient>
</defs>
</svg>
